<svg width="468" height="474" viewBox="0 0 468 474" fill="none" xmlns="http://www.w3.org/2000/svg">
<path d="M223.134 297L157.276 147.873V259.405L174.399 286.975L223.134 297Z" fill="#FFD700"/>
<path d="M331.142 297V147.873L284.454 286.975L331.142 297Z" fill="#FFD700"/>
<path d="M256.063 213.038L310.067 0H256.063L223.677 117.797L256.063 213.038Z" fill="#FFD700"/>
<path d="M94.0521 297V0H43.9999V266.924L94.0521 297Z" fill="#FFD700"/>
<path d="M94.0521 0V297H157.276V259.405V147.873L223.134 297H281.089L284.454 286.975L331.142 147.873V297H397V0H310.067L256.063 213.038L223.677 117.797L183.619 0H94.0521Z" fill="#115173"/>
<path d="M109.328 347.376V438H81.0399V392.816L67.0879 438H42.7679L28.8159 392.816V438H0.399902V347.376H35.2159L55.1839 401.776L74.6399 347.376H109.328Z" fill="white"/>
<path d="M140.582 360.048C135.633 360.048 131.665 358.725 128.678 356.08C125.691 353.435 124.198 350.107 124.198 346.096C124.198 342 125.691 338.629 128.678 335.984C131.665 333.253 135.633 331.888 140.582 331.888C145.446 331.888 149.371 333.253 152.358 335.984C155.345 338.629 156.838 342 156.838 346.096C156.838 350.107 155.345 353.435 152.358 356.08C149.371 358.725 145.446 360.048 140.582 360.048ZM154.662 365.808V438H126.246V365.808H154.662Z" fill="white"/>
<path d="M197.576 364.912C202.269 364.912 206.323 365.893 209.736 367.856C213.149 369.733 215.752 372.336 217.544 375.664V365.808H245.832V436.72C245.832 443.461 244.595 449.605 242.12 455.152C239.645 460.699 235.635 465.136 230.088 468.464C224.627 471.792 217.587 473.456 208.968 473.456C197.363 473.456 188.147 470.725 181.32 465.264C174.579 459.888 170.739 452.549 169.8 443.248H197.704C198.472 447.003 201.544 448.88 206.92 448.88C210.248 448.88 212.851 448.027 214.728 446.32C216.605 444.613 217.544 441.413 217.544 436.72V428.144C215.752 431.472 213.149 434.117 209.736 436.08C206.323 437.957 202.269 438.896 197.576 438.896C191.944 438.896 186.867 437.445 182.344 434.544C177.821 431.557 174.237 427.291 171.592 421.744C169.032 416.112 167.752 409.499 167.752 401.904C167.752 394.309 169.032 387.739 171.592 382.192C174.237 376.56 177.821 372.293 182.344 369.392C186.867 366.405 191.944 364.912 197.576 364.912ZM217.544 401.904C217.544 398.064 216.563 395.077 214.6 392.944C212.637 390.811 210.12 389.744 207.048 389.744C203.976 389.744 201.459 390.811 199.496 392.944C197.533 395.077 196.552 398.064 196.552 401.904C196.552 405.744 197.533 408.731 199.496 410.864C201.459 412.997 203.976 414.064 207.048 414.064C210.12 414.064 212.637 412.997 214.6 410.864C216.563 408.731 217.544 405.744 217.544 401.904Z" fill="white"/>
<path d="M339.104 365.808V438H310.688V426.992C308.469 430.405 305.483 433.179 301.728 435.312C298.059 437.445 293.664 438.512 288.544 438.512C280.267 438.512 273.781 435.739 269.088 430.192C264.48 424.645 262.176 417.136 262.176 407.664V365.808H290.464V404.08C290.464 407.493 291.36 410.224 293.152 412.272C295.029 414.235 297.504 415.216 300.576 415.216C303.733 415.216 306.208 414.235 308 412.272C309.792 410.224 310.688 407.493 310.688 404.08V365.808H339.104Z" fill="white"/>
<path d="M425.922 401.264C425.922 403.227 425.794 405.104 425.538 406.896H379.842C380.269 413.125 382.871 416.24 387.65 416.24C390.722 416.24 392.941 414.832 394.306 412.016H424.386C423.362 417.136 421.186 421.744 417.858 425.84C414.615 429.851 410.477 433.051 405.442 435.44C400.493 437.744 395.031 438.896 389.058 438.896C381.89 438.896 375.49 437.403 369.858 434.416C364.311 431.429 359.959 427.163 356.802 421.616C353.73 415.984 352.194 409.413 352.194 401.904C352.194 394.395 353.73 387.867 356.802 382.32C359.959 376.688 364.311 372.379 369.858 369.392C375.49 366.405 381.89 364.912 389.058 364.912C396.226 364.912 402.583 366.405 408.13 369.392C413.762 372.293 418.114 376.475 421.186 381.936C424.343 387.397 425.922 393.84 425.922 401.264ZM397.122 394.48C397.122 392.091 396.354 390.299 394.818 389.104C393.282 387.824 391.362 387.184 389.058 387.184C384.023 387.184 381.079 389.616 380.226 394.48H397.122Z" fill="white"/>
<path d="M467.421 343.28V438H439.005V343.28H467.421Z" fill="white"/>
</svg>
