<svg width="674" height="597" viewBox="0 0 674 597" fill="none" xmlns="http://www.w3.org/2000/svg">
<path d="M97 594.5V2H2V534.5L97 594.5Z" fill="#03A9F4"/>
<path d="M547 594.5V297L458.387 574.5L547 594.5Z" fill="#03A9F4"/>
<path d="M342 594.5L217 297V519.5L249.5 574.5L342 594.5Z" fill="#03A9F4"/>
<path d="M404.5 427L507 2H404.5L343.029 237L404.5 427Z" fill="#03A9F4"/>
<path d="M97 2V594.5H217V519.5V297L342 594.5H452L458.387 574.5L547 297V594.5H672V2H507L404.5 427L343.029 237L267 2H97Z" fill="#777777"/>
<path d="M97 2V594.5M97 2H267L343.029 237M97 2H2V534.5L97 594.5M97 594.5H217V519.5M342 594.5L217 297V519.5M342 594.5H452L458.387 574.5M342 594.5L249.5 574.5L217 519.5M547 594.5V297L458.387 574.5M547 594.5H672V2H507M547 594.5L458.387 574.5M507 2L404.5 427L343.029 237M507 2H404.5L343.029 237" stroke="black" stroke-width="4"/>
</svg>
