<svg width="468" height="143" viewBox="0 0 468 143" fill="none" xmlns="http://www.w3.org/2000/svg">
<path d="M109.328 16.376V107H81.04V61.816L67.088 107H42.768L28.816 61.816V107H0.4V16.376H35.216L55.184 70.776L74.64 16.376H109.328ZM140.582 29.048C135.633 29.048 131.665 27.7253 128.678 25.08C125.691 22.4347 124.198 19.1067 124.198 15.096C124.198 11 125.691 7.62933 128.678 4.98399C131.665 2.25333 135.633 0.887993 140.582 0.887993C145.446 0.887993 149.371 2.25333 152.358 4.98399C155.345 7.62933 156.838 11 156.838 15.096C156.838 19.1067 155.345 22.4347 152.358 25.08C149.371 27.7253 145.446 29.048 140.582 29.048ZM154.662 34.808V107H126.246V34.808H154.662ZM197.576 33.912C202.269 33.912 206.323 34.8933 209.736 36.856C213.149 38.7333 215.752 41.336 217.544 44.664V34.808H245.832V105.72C245.832 112.461 244.595 118.605 242.12 124.152C239.645 129.699 235.635 134.136 230.088 137.464C224.627 140.792 217.587 142.456 208.968 142.456C197.363 142.456 188.147 139.725 181.32 134.264C174.579 128.888 170.739 121.549 169.8 112.248H197.704C198.472 116.003 201.544 117.88 206.92 117.88C210.248 117.88 212.851 117.027 214.728 115.32C216.605 113.613 217.544 110.413 217.544 105.72V97.144C215.752 100.472 213.149 103.117 209.736 105.08C206.323 106.957 202.269 107.896 197.576 107.896C191.944 107.896 186.867 106.445 182.344 103.544C177.821 100.557 174.237 96.2907 171.592 90.744C169.032 85.112 167.752 78.4987 167.752 70.904C167.752 63.3093 169.032 56.7387 171.592 51.192C174.237 45.56 177.821 41.2933 182.344 38.392C186.867 35.4053 191.944 33.912 197.576 33.912ZM217.544 70.904C217.544 67.064 216.563 64.0773 214.6 61.944C212.637 59.8107 210.12 58.744 207.048 58.744C203.976 58.744 201.459 59.8107 199.496 61.944C197.533 64.0773 196.552 67.064 196.552 70.904C196.552 74.744 197.533 77.7307 199.496 79.864C201.459 81.9973 203.976 83.064 207.048 83.064C210.12 83.064 212.637 81.9973 214.6 79.864C216.563 77.7307 217.544 74.744 217.544 70.904ZM339.104 34.808V107H310.688V95.992C308.469 99.4053 305.483 102.179 301.728 104.312C298.059 106.445 293.664 107.512 288.544 107.512C280.267 107.512 273.781 104.739 269.088 99.192C264.48 93.6453 262.176 86.136 262.176 76.664V34.808H290.464V73.08C290.464 76.4933 291.36 79.224 293.152 81.272C295.029 83.2347 297.504 84.216 300.576 84.216C303.733 84.216 306.208 83.2347 308 81.272C309.792 79.224 310.688 76.4933 310.688 73.08V34.808H339.104ZM425.922 70.264C425.922 72.2267 425.794 74.104 425.538 75.896H379.842C380.269 82.1253 382.871 85.24 387.65 85.24C390.722 85.24 392.941 83.832 394.306 81.016H424.386C423.362 86.136 421.186 90.744 417.858 94.84C414.615 98.8507 410.477 102.051 405.442 104.44C400.493 106.744 395.031 107.896 389.058 107.896C381.89 107.896 375.49 106.403 369.858 103.416C364.311 100.429 359.959 96.1627 356.802 90.616C353.73 84.984 352.194 78.4133 352.194 70.904C352.194 63.3947 353.73 56.8667 356.802 51.32C359.959 45.688 364.311 41.3787 369.858 38.392C375.49 35.4053 381.89 33.912 389.058 33.912C396.226 33.912 402.583 35.4053 408.13 38.392C413.762 41.2933 418.114 45.4747 421.186 50.936C424.343 56.3973 425.922 62.84 425.922 70.264ZM397.122 63.48C397.122 61.0907 396.354 59.2987 394.818 58.104C393.282 56.824 391.362 56.184 389.058 56.184C384.023 56.184 381.079 58.616 380.226 63.48H397.122ZM467.421 12.28V107H439.005V12.28H467.421Z" fill="white"/>
</svg>
